<svg width="29" height="17" viewBox="0 0 29 17" fill="none" xmlns="http://www.w3.org/2000/svg">
<path fill-rule="evenodd" clip-rule="evenodd" d="M15.2609 0.0127856C15.8664 0.0255026 16.4356 0.0728104 16.9761 0.125755C17.5655 0.183486 18.1333 0.264174 18.6968 0.366963C19.2417 0.466341 19.7778 0.578605 20.3194 0.71503L20.3356 0.719099L20.3355 0.719162C20.8586 0.855782 21.3745 1.01326 21.865 1.1796C22.3777 1.35345 22.8617 1.54735 23.3155 1.74739C23.8001 1.96103 24.2312 2.19258 24.63 2.41626C25.0725 2.66454 25.4626 2.92948 25.8082 3.17538C26.1816 3.44105 26.5137 3.71663 26.8226 4.01111C27.1425 4.30572 27.413 4.6143 27.6494 4.90291L27.6575 4.91272L27.6574 4.91275C27.9076 5.22955 28.1211 5.54855 28.2967 5.86967C28.4685 6.18373 28.6214 6.52038 28.7369 6.84852C28.8481 7.16451 28.9532 7.52427 28.9744 7.89907L28.9751 7.91035C28.9922 8.21291 29.0111 8.54457 28.992 8.88041C28.9725 9.2248 28.9139 9.56864 28.8166 9.91169C28.7187 10.257 28.5834 10.5844 28.4356 10.8994C28.2776 11.2359 28.0813 11.5583 27.8491 11.8767C27.6947 12.0885 27.5282 12.2995 27.3435 12.5084L28.9474 16.0082C29.0705 16.277 28.939 16.5639 28.6027 16.7599C28.2664 16.9559 27.7772 17.0308 27.321 16.9561L21.3415 15.9778C21.0082 16.0841 20.658 16.1873 20.2843 16.2814C19.7426 16.4178 19.2065 16.5301 18.6617 16.6295C18.0992 16.732 17.5325 16.8126 16.9443 16.8703C16.3753 16.9279 15.8004 16.9611 15.2476 16.9828C14.6619 17.0057 14.076 17.0057 13.4903 16.9828C12.9066 16.9599 12.345 16.9144 11.7721 16.8475C11.1862 16.7874 10.62 16.6944 10.0938 16.5985C10.0807 16.5961 10.0677 16.5936 10.0548 16.591C9.54993 16.4886 8.99936 16.3741 8.45449 16.2208C7.92521 16.082 7.42209 15.9221 6.9286 15.7436C6.42332 15.5608 5.9591 15.3674 5.50058 15.154L5.47925 15.1439L5.45623 15.1327C5.06624 14.9434 4.61095 14.7224 4.18762 14.4617C3.81345 14.2313 3.42634 13.9825 3.06798 13.7035C2.68049 13.4256 2.36488 13.1332 2.08505 12.8659C1.77419 12.569 1.50389 12.263 1.27294 11.9587C1.0108 11.6369 0.815869 11.3128 0.649988 10.999C0.475042 10.6785 0.33923 10.3483 0.241823 10.009C0.122076 9.66362 0.0655218 9.31857 0.0292847 8.99911C-0.00976158 8.65488 -0.00976158 8.31054 0.0292847 7.96631C0.0684261 7.62125 0.146028 7.29416 0.237645 6.97109C0.240453 6.96119 0.243588 6.95132 0.247049 6.94149C0.358261 6.62557 0.491214 6.3004 0.665632 5.97009L0.66957 5.96263L0.669634 5.96264C0.841702 5.64802 1.0517 5.32249 1.28247 5.01732L1.29127 5.00568L1.29144 5.00572C1.52947 4.7044 1.7827 4.40506 2.10262 4.09951C2.41251 3.80355 2.737 3.53497 3.06713 3.27627C3.42144 2.99862 3.81399 2.73334 4.22661 2.49083C4.62565 2.25631 5.05023 2.02912 5.51815 1.8114L5.54544 1.79904L5.57067 1.78792C5.97639 1.60906 6.45209 1.39935 6.97831 1.22092C7.44168 1.06381 7.9663 0.891602 8.50781 0.750153C9.01566 0.617499 9.55484 0.492534 10.1225 0.388789C10.6535 0.288626 11.2403 0.196038 11.8248 0.136809C12.3672 0.0818464 12.9414 0.036511 13.5255 0.013627C13.54 0.0130559 13.5546 0.0126271 13.5692 0.0123411L13.5963 0.0118104C14.1 0.00193209 14.675 -0.00934483 15.2609 0.0127856ZM25.0473 11.7444C25.1796 11.5916 25.3045 11.4325 25.4258 11.2663C25.6155 11.0061 25.7707 10.75 25.894 10.4874C26.0274 10.2032 26.1382 9.93143 26.216 9.65695C26.2945 9.3802 26.3414 9.10421 26.357 8.82879C26.3728 8.549 26.3572 8.26491 26.3394 7.95069C26.3255 7.70567 26.2548 7.44562 26.1551 7.16246C26.0597 6.89144 25.9313 6.60828 25.7867 6.34384C25.6468 6.08808 25.4749 5.83021 25.2699 5.57017C25.0522 5.30475 24.8338 5.05936 24.5956 4.84057L24.583 4.82904L24.5832 4.82898C24.3314 4.58845 24.0677 4.37005 23.7756 4.16225C23.4533 3.93296 23.1403 3.72271 22.8095 3.53712C22.4349 3.32693 22.0926 3.14528 21.7336 2.98702C21.3437 2.81517 20.9488 2.65785 20.5475 2.52179C20.1268 2.37912 19.6963 2.24811 19.2728 2.13725C18.8327 2.02663 18.3871 1.93291 17.9154 1.84687C17.4595 1.76372 17.0079 1.69978 16.5427 1.65421C16.0351 1.60449 15.5921 1.56966 15.1511 1.56102C15.1365 1.56073 15.1219 1.5603 15.1074 1.55973C14.663 1.54232 14.2082 1.55024 13.6796 1.56058C13.2158 1.57929 12.7427 1.6162 12.2728 1.66382C11.8402 1.70765 11.3747 1.77985 10.923 1.86518L10.9104 1.86757L10.9104 1.86753C10.461 1.9495 10.018 2.05136 9.5786 2.16614C9.17097 2.27261 8.74645 2.41032 8.29583 2.56311C7.92313 2.68948 7.5677 2.8446 7.1415 3.03243C6.77075 3.20548 6.42613 3.38949 6.0909 3.58652C5.7653 3.77788 5.45478 3.98779 5.17633 4.20599C4.87371 4.44314 4.60059 4.67041 4.34802 4.91162C4.1072 5.14162 3.9046 5.37772 3.6874 5.65239C3.49889 5.90227 3.32454 6.17236 3.1817 6.43309C3.04311 6.69608 2.93204 6.96401 2.83406 7.24073C2.75202 7.53169 2.69059 7.79924 2.65995 8.06939C2.62869 8.34498 2.62869 8.62045 2.65995 8.89604C2.6935 9.19178 2.74129 9.46119 2.82887 9.70999C2.83233 9.71982 2.83547 9.72969 2.83828 9.73959C2.91598 10.0136 3.02417 10.2764 3.16208 10.5286L3.16615 10.536L3.16609 10.5361C3.31431 10.8168 3.4679 11.0662 3.65727 11.2973C3.66308 11.3044 3.66872 11.3116 3.67416 11.3188C3.86328 11.5689 4.08247 11.817 4.33044 12.0538C4.6083 12.3192 4.84915 12.5378 5.12048 12.7309C5.13362 12.7402 5.14638 12.7497 5.15876 12.7594C5.42803 12.9704 5.73711 13.1716 6.09475 13.3918C6.3986 13.5789 6.73888 13.7456 7.14758 13.944C7.52913 14.1212 7.9054 14.2774 8.31039 14.4239C8.72524 14.5739 9.13025 14.7017 9.54344 14.8096C9.55569 14.8128 9.56785 14.8161 9.57993 14.8195C9.97311 14.9308 10.3943 15.0206 10.8947 15.1221C11.375 15.2094 11.816 15.2795 12.2376 15.3223L12.2722 15.326C12.748 15.382 13.2006 15.4185 13.6657 15.4367C14.1346 15.4551 14.6033 15.4551 15.0722 15.4367C15.5727 15.4171 16.0511 15.3884 16.5002 15.3429L16.5075 15.3422L16.5075 15.3422C16.9727 15.2966 17.4243 15.2327 17.8802 15.1495C18.3548 15.063 18.803 14.9686 19.2457 14.8571C19.6694 14.7504 20.0755 14.6227 20.5124 14.4746C20.8189 14.3707 21.1837 14.3435 21.5246 14.3993L25.8002 15.0989L24.6264 12.5374C24.4893 12.2382 24.6698 11.9325 25.0473 11.7444Z" fill="white"/>
</svg>
