<svg width="31" height="15" viewBox="0 0 31 15" fill="none" xmlns="http://www.w3.org/2000/svg">
<path fill-rule="evenodd" clip-rule="evenodd" d="M0.104745 0.481959C0.321165 0.190468 0.836315 0 1.40828 0H29.5918C30.098 0 30.5653 0.149616 30.8157 0.391872C31.0661 0.634127 31.061 0.931735 30.8024 1.17136L16.2882 14.6207C15.9957 14.8917 15.4342 15.0383 14.868 14.9913C14.3017 14.9444 13.8434 14.7134 13.7088 14.4069L10.3111 6.67288L0.421822 1.32864C0.0136326 1.10806 -0.111674 0.773451 0.104745 0.481959ZM4.85334 1.55065L11.8097 5.30992L24.1413 1.55065H4.85334ZM25.7253 2.84026L13.2022 6.6579L15.6333 12.1918L25.7253 2.84026Z" fill="white"/>
</svg>
