<svg width="31" height="15" viewBox="0 0 31 15" fill="none" xmlns="http://www.w3.org/2000/svg">
<path d="M21.95 0.00197994C20.7116 -0.0178194 19.527 0.110876 18.3963 0.388068C17.2656 0.665259 16.2965 1.06125 15.4888 1.58593C14.6812 1.07115 13.73 0.665259 12.5993 0.388068C11.4506 0.110876 10.284 -0.0178194 9.04562 0.00197994C8.4354 0.0118796 7.82518 0.061378 7.2329 0.140576C6.64063 0.219773 6.04836 0.328669 5.49198 0.467265C4.9356 0.605861 4.39717 0.784055 3.91259 0.982049C3.41005 1.18004 2.96136 1.40773 2.53062 1.65523C2.11782 1.90272 1.74092 2.17001 1.41786 2.4571C1.09481 2.74419 0.825592 3.05108 0.61022 3.36787C0.394848 3.68466 0.233319 4.01135 0.143581 4.34794C0.0179476 4.68453 0 5.03102 0 5.36761C0 8.05042 3.44595 9.69377 6.76626 11.2876C7.14317 11.4658 7.53801 11.6539 7.91491 11.842L9.29688 12.5251C10.8045 13.3171 12.3839 14.0694 14.0351 14.7624C14.4838 14.9208 14.9683 15 15.5068 15C16.0452 15 16.5298 14.9208 16.9785 14.7624C18.6835 14.0397 20.3167 13.2676 21.8602 12.4459L23.0986 11.8321C23.4935 11.6341 23.8883 11.446 24.2832 11.2579C27.424 9.75317 30.9956 8.05042 30.9956 5.35771C31.0135 5.02112 30.9776 4.68453 30.87 4.34794C30.7623 4.01135 30.6187 3.68466 30.4033 3.36787C30.188 3.05108 29.9187 2.74419 29.5957 2.4571C29.2726 2.17001 28.8957 1.90272 28.4829 1.65523C28.0701 1.40773 27.6035 1.18004 27.101 0.982049C26.5984 0.784055 26.0779 0.61576 25.5216 0.467265C24.9652 0.31877 24.3909 0.219773 23.7806 0.140576C23.1884 0.061378 22.5781 0.0118796 21.9679 0.00197994H21.95ZM21.95 1.48693C22.8294 1.51663 23.673 1.63543 24.4806 1.84332C25.2882 2.05121 25.9703 2.33831 26.5625 2.70459C27.1548 3.07088 27.6035 3.47677 27.9086 3.94205C28.2137 4.40734 28.3393 4.87262 28.2855 5.36761C28.2855 7.65444 24.7139 9.05029 21.2859 10.7332C17.9118 12.3964 16.0811 13.3072 15.4888 13.5249C14.8427 13.2973 12.5993 12.1687 9.69173 10.7332C6.24578 9.05029 2.69215 7.63464 2.69215 5.36761C2.65625 4.88252 2.78189 4.40734 3.06905 3.94205C3.37416 3.47677 3.8049 3.07088 4.41512 2.70459C5.00739 2.33831 5.70735 2.05121 6.49705 1.84332C7.30469 1.63543 8.13029 1.51663 9.02767 1.48693C10.0327 1.46713 10.966 1.58593 11.8454 1.84332C12.7249 2.10071 13.4428 2.4571 13.9812 2.92239C15.1119 3.79356 15.3093 4.22914 15.4888 4.22914C15.6683 4.22914 15.8657 3.79356 16.9785 2.91249C17.5169 2.4472 18.2169 2.08091 19.1142 1.82352C19.9937 1.56613 20.9449 1.44733 21.932 1.46713" fill="white"/>
</svg>
