<svg width="25" height="18" viewBox="0 0 25 18" fill="none" xmlns="http://www.w3.org/2000/svg">
<path fill-rule="evenodd" clip-rule="evenodd" d="M0 0.899399C0 0.402675 0.621366 0 1.38786 0H23.6121C24.3786 0 25 0.402675 25 0.899399V17.1006C25 17.4597 24.6703 17.7845 24.1613 17.9266C23.6523 18.0687 23.0616 18.0009 22.6589 17.7542L12.4915 11.5271L2.34198 17.7537C1.93935 18.0007 1.34851 18.0688 0.83924 17.9267C0.329971 17.7847 0 17.4599 0 17.1006V0.899399ZM2.77572 1.7988V15.0107L11.5366 9.63598C12.0715 9.30785 12.9087 9.30762 13.444 9.63546L22.2243 15.0131V1.7988H2.77572Z" fill="white"/>
</svg>
